<svg xmlns="http://www.w3.org/2000/svg" viewBox="0 0 439.81 139.44" fill="#0e0e0e"><g id="Layer_2" data-name="Layer 2"><g id="Ebene_1" data-name="Ebene 1"><g id="logo"><path d="M0,84.28C0,53.66,20,34.4,47.82,34.4,75,34.4,96,49.88,96,80c0,34.23-21.15,52.46-48,52.46C19.78,132.44,0,113.52,0,84.28Zm48,41.28A26.82,26.82,0,0,0,58.14,124c4.47-8.26,7.22-15.65,7.22-41.62,0-23-2.75-31.65-7.4-39.73a29.79,29.79,0,0,0-10.14-1.38,31.64,31.64,0,0,0-10,1.38c-4.47,8.08-7.4,16.68-7.4,39.73,0,26,2.93,33.71,7.4,41.79A33.66,33.66,0,0,0,48,125.56Z"/><path d="M197.8,36.12v6.36l-4.64.35c-3.1,4.13-6,10-8.78,16.68l-29.06,72.93h-10L110.77,43l-7.4-.52V36.12H150.5v6.36l-12,.52,15.83,40.25a171.69,171.69,0,0,1,6,17.2L176.13,61.4c0-8.6-3.27-15.48-6.36-18.74l-6.54-.18V36.12Z"/><path d="M220.16,124V10.84l-11.35,1.54-1-6.36L248.2,0a49.17,49.17,0,0,1,.51,7.05V124l10.67.34v6.37H209.5v-6.37Z"/><path d="M299.09,56.6c0-9.72,4.59-15.66,11.44-15.66a15.34,15.34,0,0,1,6.86,1.67l.65,10h-1.73c-.7-4.21-1.73-7.94-2.7-9.29a8.23,8.23,0,0,0-3.13-.59,7.37,7.37,0,0,0-2.92.54C305.94,45,304.05,48.6,304,56c-.11,8.37,3.07,13,6.53,13.77,2.92-.43,5.08-2.92,6.43-7.83l1.78.38c-1.35,5.78-4.38,9.45-9.29,9.45C303.73,71.72,299.09,66.59,299.09,56.6Z"/><path d="M321.66,56.6c0-10,4.91-15.66,11.66-15.66,7,0,11.83,5.45,11.83,14.79,0,10.26-5,16-11.72,16C326.46,71.72,321.66,66.16,321.66,56.6Zm11.72,13.28a7.69,7.69,0,0,0,3.45-.76c1.73-2.15,3.35-5.18,3.35-13,0-7.51-1.67-10.64-3.46-12.7a7.59,7.59,0,0,0-3.29-.7,8.42,8.42,0,0,0-3.4.7c-1.78,2.06-3.46,5.19-3.46,12.7,0,7.72,1.62,10.9,3.46,13A7.4,7.4,0,0,0,333.38,69.88Z"/><path d="M373.77,69.45v1.73h-7.13a20.13,20.13,0,0,1-.11-2.86V63.94c-1.35,4.81-4.75,7.67-8.64,7.67-5.67,0-9.34-5.62-9.34-14.8,0-9.56,4.86-15.87,11.93-15.87A12,12,0,0,1,366,42.23V32.89l-3.83.65-.38-1.68,8.64-1.72a13.5,13.5,0,0,1,.16,2.1v37.1ZM366,58V44.34a11,11,0,0,0-5.56-1.51,9.22,9.22,0,0,0-2.43.32c-2.86,2.21-4.54,6.64-4.54,13,0,6.59,1.14,12,4.48,13.66C362.75,69.61,366,64.32,366,58Z"/><path d="M397.2,62.38c-1.24,5.4-4.8,9.34-10,9.34-6.32,0-10.91-5.08-10.91-14.85,0-9.51,4.16-15.93,10.91-15.93s9.89,5.29,9.94,10.9a9.14,9.14,0,0,1-.22,2.65H381.22v1.57c-.11,8.75,2.59,12.63,6.8,13.77,3.24-.27,6.16-3,7.4-7.89Zm-15.87-9.67h11.39l-.05-1c-.06-3.89-1-6.75-2.54-8.43a8.61,8.61,0,0,0-2.92-.54,7.83,7.83,0,0,0-2.86.54C382.57,45,381.6,48.12,381.33,52.71Z"/><path d="M439.81,70.15a8,8,0,0,1-4.59,1.57c-2.7,0-4.43-1.24-6.7-4.43a11.35,11.35,0,0,1-9,4.43c-5.46,0-9.4-3.4-9.4-8.7a9,9,0,0,1,7.51-9l-.33-.37c-2.26-2.92-3.56-5.57-3.56-8,0-3.51,2.48-7.12,8-7.12,4.92,0,7.67,2.91,7.67,7a11.76,11.76,0,0,1-.59,3.57h10.63v1.73l-4.21.1a31.21,31.21,0,0,1-3.83,13.07l.38.49a20.86,20.86,0,0,0,5,5.34,9.92,9.92,0,0,0,2.16-1.08Zm-12.48-4.37-8.91-10.86c-1.83.87-3.83,3.24-3.83,7.4a8.85,8.85,0,0,0,3.46,7.35,7.56,7.56,0,0,0,1.89.21A8.94,8.94,0,0,0,427.33,65.78Zm-9.72-21.66c0,2.05,1,4.32,3.57,7.45l9,10.81a28.21,28.21,0,0,0,3.24-11.51l-6.8,0h-.22a16.25,16.25,0,0,0,1.08-5.24c0-3-2.16-5.13-5.51-5.24a8.72,8.72,0,0,0-2.91.43A4.74,4.74,0,0,0,417.61,44.12Z"/><path d="M324.3,127.45v1.73h-7.12a20.13,20.13,0,0,1-.11-2.86v-4.38c-1.35,4.81-4.75,7.67-8.64,7.67-5.67,0-9.34-5.62-9.34-14.8,0-9.55,4.86-15.87,11.93-15.87a12.07,12.07,0,0,1,5.51,1.29V90.89l-3.84.65-.37-1.68L321,88.14a14.85,14.85,0,0,1,.16,2.1v37.1ZM316.53,116V102.34a11.07,11.07,0,0,0-5.56-1.51,9.66,9.66,0,0,0-2.43.32c-2.87,2.21-4.54,6.64-4.54,13,0,6.59,1.13,12,4.48,13.66C313.29,127.61,316.53,122.32,316.53,116Z"/><path d="M347.74,120.38c-1.24,5.4-4.81,9.34-10,9.34-6.32,0-10.91-5.08-10.91-14.85,0-9.51,4.16-15.93,10.91-15.93s9.88,5.29,9.94,10.91a9.47,9.47,0,0,1-.22,2.64H331.75v1.57c-.1,8.75,2.6,12.63,6.81,13.77,3.24-.27,6.16-3,7.4-7.89Zm-15.88-9.67h11.4l-.06-1c-.05-3.89-1-6.75-2.53-8.43a8.66,8.66,0,0,0-2.92-.54,7.75,7.75,0,0,0-2.86.54C333.1,103,332.13,106.12,331.86,110.71Z"/><path d="M352,127.56l-.7-9.78H353a47.83,47.83,0,0,0,2.81,9,9.36,9.36,0,0,0,4.37,1.08,7.69,7.69,0,0,0,4.48-1.19,6.12,6.12,0,0,0,.92-3.34c0-2.22-1.08-4.11-4.43-6l-4.32-2.54c-3.56-2.11-5.07-4.37-5.13-7.61-.05-4.38,3-8.21,9.18-8.21A19.64,19.64,0,0,1,368,100.5l.65,9.29H367a27.34,27.34,0,0,0-3-8.42,9.48,9.48,0,0,0-6.64,0,5.2,5.2,0,0,0-1.84,4c0,2.21,1.14,3.94,4.38,5.88l4.48,2.65c3.19,1.89,5.08,4.48,5.08,7.61,0,4.65-3.35,8.16-9.45,8.16A17.24,17.24,0,0,1,352,127.56Z"/><path d="M375.87,127.34v-25.7l-3.62.7-.37-1.73,8.53-1.73a13.63,13.63,0,0,1,.11,2.11v26.35l3.18.11v1.73h-11v-1.73ZM375,91.81a3.17,3.17,0,0,1,6.32,0,3.16,3.16,0,0,1-6.32,0Z"/><path d="M403,101.53a7.61,7.61,0,0,1,4,6.91c0,5.4-3.68,9.72-10.26,9.72a11,11,0,0,1-2.43-.22l-2.65,2.71c1.57,1.08,4.21,1.89,8.26,2.75,6.21,1.4,8.53,4.32,8.53,7.51,0,5.13-4.15,8.53-11.17,8.53s-11.07-2.86-11.07-7.08c0-3.24,2.37-5.51,4.91-7a10.15,10.15,0,0,1-3-1.57,2.55,2.55,0,0,1-1.08-1.19l5.24-5.23a8.85,8.85,0,0,1-5.78-8.7c0-5.29,3.56-9.77,10.31-9.77,3.41,0,5.08,1.51,7.19.86a7.54,7.54,0,0,0,1.35-5l3.56.27a7.86,7.86,0,0,1-.27,2A6.31,6.31,0,0,1,403,101.53ZM397.9,127.4c-1.94-.55-3.67-1-5.18-1.41a8.7,8.7,0,0,0-2.65,6.16,6.23,6.23,0,0,0,1.25,4.1,12.15,12.15,0,0,0,6,1.35,14.18,14.18,0,0,0,5.84-1.13,4.88,4.88,0,0,0,1.51-3.57C404.71,129.88,402.55,128.53,397.9,127.4ZM402,108.55c0-3.29-.7-5.67-2.11-7.24a7.74,7.74,0,0,0-3.08-.54,8.56,8.56,0,0,0-3.24.54c-1.45,1.57-2.16,3.89-2.16,7.24,0,3.08.71,5.67,2.16,7.18a8.64,8.64,0,0,0,3.24.6,7.82,7.82,0,0,0,3.08-.6C401.31,114.27,402,111.52,402,108.55Z"/><path d="M438,127.45v1.73H427.17v-1.73l3-.11V114.6c0-2.33.1-5.13.1-7.67,0-3.08-.64-5-2.37-6a7.92,7.92,0,0,0-1.14-.06c-4.48,0-8.53,5-8.53,11.83v14.63l3.08.11v1.73H410.43v-1.73l3.19-.11v-25.7l-3.67.64-.33-1.67,8.26-1.73a8.89,8.89,0,0,1,.17,2.11l-.17,5.07a10.06,10.06,0,0,1,9.56-7.12c4.21,0,7.51,2.37,7.51,7.94,0,2.75-.11,5.07-.11,7.83v12.63Z"/></g></g></g></svg>