<?xml version="1.0" standalone="no"?>
<!DOCTYPE svg PUBLIC "-//W3C//DTD SVG 20010904//EN"
 "http://www.w3.org/TR/2001/REC-SVG-20010904/DTD/svg10.dtd">
<svg version="1.0" xmlns="http://www.w3.org/2000/svg"
 width="400.000000pt" height="400.000000pt" viewBox="0 0 400.000000 400.000000"
 preserveAspectRatio="xMidYMid meet">
<metadata>
Created by potrace 1.11, written by Peter Selinger 2001-2013
</metadata>
<g transform="translate(0.000000,400.000000) scale(0.100000,-0.100000)"
fill="#000000" stroke="none">
<path d="M1870 3174 c-147 -22 -240 -49 -335 -97 -287 -143 -467 -418 -526
-802 -18 -120 -15 -371 6 -489 84 -477 380 -769 839 -826 112 -14 255 -9 361
14 408 87 670 390 752 871 26 156 23 449 -6 585 -89 417 -362 672 -785 735
-94 14 -243 18 -306 9z m263 -163 c31 -12 64 -88 88 -206 49 -238 52 -1175 4
-1447 -14 -80 -56 -222 -70 -237 -14 -13 -279 -12 -305 1 -34 18 -74 140 -95
288 -22 154 -32 903 -16 1144 17 255 60 427 111 453 29 15 246 18 283 4z"/>
</g>
</svg>
