<?xml version="1.0" encoding="UTF-8" standalone="no"?>
<!DOCTYPE svg PUBLIC "-//W3C//DTD SVG 1.1//EN" "http://www.w3.org/Graphics/SVG/1.1/DTD/svg11.dtd">
<svg width="100%" height="100%" viewBox="0 0 75 79" version="1.1" xmlns="http://www.w3.org/2000/svg" xmlns:xlink="http://www.w3.org/1999/xlink" xml:space="preserve" xmlns:serif="http://www.serif.com/" style="fill-rule:evenodd;clip-rule:evenodd;stroke-linejoin:round;stroke-miterlimit:2;">
    <path d="M73.839,17.49C72.697,9.002 65.299,2.312 56.53,1.016C55.05,0.797 49.444,0 36.458,0L36.361,0C23.372,0 20.585,0.797 19.105,1.016C10.58,2.276 2.794,8.287 0.905,16.876C-0.004,21.106 -0.101,25.795 0.068,30.097C0.309,36.265 0.356,42.423 0.916,48.567C1.303,52.647 1.979,56.696 2.938,60.681C4.733,68.042 12.002,74.168 19.123,76.667C26.748,79.273 34.947,79.706 42.804,77.916C43.668,77.715 44.522,77.482 45.365,77.216C47.275,76.609 49.512,75.931 51.157,74.739C51.18,74.722 51.198,74.7 51.211,74.675C51.224,74.65 51.232,74.623 51.233,74.595L51.233,68.642C51.232,68.615 51.226,68.59 51.214,68.566C51.203,68.543 51.186,68.522 51.165,68.506C51.144,68.49 51.12,68.478 51.095,68.473C51.069,68.467 51.043,68.467 51.017,68.473C45.984,69.675 40.825,70.278 35.65,70.268C26.744,70.268 24.349,66.042 23.663,64.283C23.111,62.762 22.761,61.176 22.621,59.565C22.62,59.538 22.625,59.511 22.636,59.486C22.647,59.461 22.663,59.439 22.684,59.422C22.705,59.405 22.73,59.393 22.757,59.387C22.783,59.381 22.81,59.382 22.837,59.389C27.786,60.583 32.86,61.185 37.952,61.184C39.177,61.184 40.398,61.184 41.622,61.152C46.744,61.008 52.141,60.746 57.18,59.762C57.305,59.737 57.431,59.715 57.539,59.683C65.486,58.157 73.049,53.367 73.818,41.238C73.847,40.761 73.918,36.236 73.918,35.741C73.922,34.057 74.461,23.795 73.839,17.49ZM61.248,27.026L61.248,48.114L52.892,48.114L52.892,27.648C52.892,23.339 51.096,21.141 47.444,21.141C43.429,21.141 41.418,23.741 41.418,28.876L41.418,40.078L33.111,40.078L33.111,28.876C33.111,23.741 31.097,21.141 27.081,21.141C23.451,21.141 21.637,23.339 21.637,27.648L21.637,48.114L13.284,48.114L13.284,27.026C13.284,22.718 14.384,19.295 16.584,16.757C18.854,14.226 21.831,12.926 25.526,12.926C29.804,12.926 33.036,14.57 35.191,17.856L37.27,21.346L39.353,17.856C41.507,14.57 44.74,12.926 49.01,12.926C52.701,12.926 55.678,14.226 57.955,16.757C60.153,19.292 61.251,22.715 61.248,27.026Z" style="fill:url(#_Linear1);fill-rule:nonzero;"/>
    <defs>
        <linearGradient id="_Linear1" x1="0" y1="0" x2="1" y2="0" gradientUnits="userSpaceOnUse" gradientTransform="matrix(4.83735e-15,79,-79,4.83735e-15,37.0692,0)"><stop offset="0" style="stop-color:rgb(255,74,74);stop-opacity:1"/><stop offset="1" style="stop-color:rgb(175,0,0);stop-opacity:1"/></linearGradient>
    </defs>
</svg>
