<svg class="floral-heart floral-heart--main-red" fill="#b00000" data-name="Ebene 1" xmlns="http://www.w3.org/2000/svg" viewBox="0 0 222.66 229.53"><title>floral-heart.svg</title><path d="M184.38,20.31Q185.78,10,190.63,5t13.12-5a17.51,17.51,0,0,1,13.59,5.86q5.31,5.86,5.32,15.23a32.78,32.78,0,0,1-5.32,17.58q-5.31,8.52-15.46,16a72.69,72.69,0,0,1-19.15,10.15,59,59,0,0,1-19.6,3.6,50.89,50.89,0,0,1-12.43-1.72,81.67,81.67,0,0,1-14.45-5.31q-5.31,12-9.84,21.87t-8.75,18.91l-1.88-7.5q3.12-9.06,6.49-18.21t7-18.2q-43.44-26.87-58.6-33.9t-24.37-7a29.62,29.62,0,0,0-20.86,8.21q-8.84,8.2-8.83,19.29a20.51,20.51,0,0,0,2.11,8.6,43.27,43.27,0,0,0,6.17,9.37q-1.56,5.94-4.84,9a11.28,11.28,0,0,1-8,3,10.73,10.73,0,0,1-8.67-4.06Q0,66.71,0,60.16A41.62,41.62,0,0,1,4.69,41.72,69.19,69.19,0,0,1,18.12,23.44,70.2,70.2,0,0,1,36.56,9.84,41.77,41.77,0,0,1,55,5.16q8.74,0,18.91,4.53T96.25,23.75L92.34,12.81a36.32,36.32,0,0,1,10.47-9.69A24.48,24.48,0,0,1,115.16,0q11.55,0,20,9.61T143.59,33a48.62,48.62,0,0,1-.86,8.67,99.81,99.81,0,0,1-2.57,10.55,105.46,105.46,0,0,0,16.09,6.25,48.3,48.3,0,0,0,13,2q11.25,0,18.75-5.78t7.5-14.38a20.11,20.11,0,0,0-2.5-9.84A43.23,43.23,0,0,0,184.38,20.31Zm-67,91.41q7.5-14.68,17.58-22a37.64,37.64,0,0,1,22.74-7.35q16.88,0,27.81,11.49t10.94,29.45a44.27,44.27,0,0,1-9.22,27.66q-9.23,12-29.53,22.5-3.28,1.71-9.85,5-28.59,14.06-28.59,26.09a15.81,15.81,0,0,0,5.47,12.27,19.34,19.34,0,0,0,13.44,4.92,21.58,21.58,0,0,0,17.26-7.81q6.65-7.82,8.05-21.88a23.08,23.08,0,0,1,4.92-2.89,12.91,12.91,0,0,1,5.08-1,13.86,13.86,0,0,1,9.76,3.68,11.58,11.58,0,0,1,4,8.82q0,11.73-14.61,20.32t-35.7,8.59a99,99,0,0,1-71.1-28.91,96.71,96.71,0,0,1-22-31.87,95.54,95.54,0,0,1-7.66-37.81q0-26.1,12.19-42T80.31,73Q94.85,73,103,82.66t8.44,27.18ZM132,48.28c.52-2.39.94-4.61,1.25-6.64a34.81,34.81,0,0,0,.47-5.08q0-10.94-5.7-18.12t-14.14-7.19a10.07,10.07,0,0,0-7.66,3.13,11.3,11.3,0,0,0-3,8.12q0,6.57,7,12.89T132,48.28Z"/></svg>